{
    "patcher": {
        "fileversion": 1,
        "appversion": {
            "major": 9,
            "minor": 1,
            "revision": 2,
            "architecture": "x64",
            "modernui": 1
        },
        "classnamespace": "box",
        "rect": [ 34.0, 100.0, 1444.0, 848.0 ],
        "boxes": [
            {
                "box": {
                    "id": "obj-42",
                    "maxclass": "newobj",
                    "numinlets": 1,
                    "numoutlets": 0,
                    "patching_rect": [ 250.0, 203.0, 32.0, 22.0 ],
                    "text": "print"
                }
            },
            {
                "box": {
                    "id": "obj-41",
                    "maxclass": "dict.view",
                    "numinlets": 1,
                    "numoutlets": 0,
                    "patching_rect": [ 326.0, 271.0, 124.0, 450.0 ]
                }
            },
            {
                "box": {
                    "id": "obj-39",
                    "linecount": 2,
                    "maxclass": "message",
                    "numinlets": 2,
                    "numoutlets": 1,
                    "outlettype": [ "" ],
                    "patching_rect": [ 312.0, 132.0, 51.0, 35.0 ],
                    "text": "goal 95 20 54"
                }
            },
            {
                "box": {
                    "id": "obj-36",
                    "maxclass": "button",
                    "numinlets": 1,
                    "numoutlets": 1,
                    "outlettype": [ "bang" ],
                    "parameter_enable": 0,
                    "patching_rect": [ 191.0, 14.0, 24.0, 24.0 ]
                }
            },
            {
                "box": {
                    "id": "obj-20",
                    "maxclass": "newobj",
                    "numinlets": 3,
                    "numoutlets": 1,
                    "outlettype": [ "" ],
                    "patching_rect": [ 191.0, 84.0, 52.0, 22.0 ],
                    "text": "pack i i i"
                }
            },
            {
                "box": {
                    "id": "obj-17",
                    "maxclass": "newobj",
                    "numinlets": 2,
                    "numoutlets": 1,
                    "outlettype": [ "" ],
                    "patching_rect": [ 359.0, 54.0, 73.0, 22.0 ],
                    "text": "random 100"
                }
            },
            {
                "box": {
                    "id": "obj-13",
                    "maxclass": "newobj",
                    "numinlets": 2,
                    "numoutlets": 1,
                    "outlettype": [ "" ],
                    "patching_rect": [ 274.0, 54.0, 73.0, 22.0 ],
                    "text": "random 100"
                }
            },
            {
                "box": {
                    "id": "obj-11",
                    "maxclass": "newobj",
                    "numinlets": 2,
                    "numoutlets": 1,
                    "outlettype": [ "" ],
                    "patching_rect": [ 191.0, 54.0, 73.0, 22.0 ],
                    "text": "random 100"
                }
            },
            {
                "box": {
                    "id": "obj-9",
                    "maxclass": "message",
                    "numinlets": 2,
                    "numoutlets": 1,
                    "outlettype": [ "" ],
                    "patching_rect": [ 191.0, 115.0, 81.0, 22.0 ],
                    "text": "goal $1 $2 $3"
                }
            },
            {
                "box": {
                    "id": "obj-7",
                    "maxclass": "newobj",
                    "numinlets": 2,
                    "numoutlets": 2,
                    "outlettype": [ "", "" ],
                    "patching_rect": [ 614.6666666666666, 441.5, 125.0, 22.0 ],
                    "text": "bach.filternull @out m"
                }
            },
            {
                "box": {
                    "id": "obj-37",
                    "maxclass": "toggle",
                    "numinlets": 1,
                    "numoutlets": 1,
                    "outlettype": [ "int" ],
                    "parameter_enable": 0,
                    "patching_rect": [ 544.0, 440.5, 24.0, 24.0 ]
                }
            },
            {
                "box": {
                    "id": "obj-35",
                    "maxclass": "toggle",
                    "numinlets": 1,
                    "numoutlets": 1,
                    "outlettype": [ "int" ],
                    "parameter_enable": 0,
                    "patching_rect": [ 393.0, 890.0, 24.0, 24.0 ]
                }
            },
            {
                "box": {
                    "id": "obj-248",
                    "maxclass": "newobj",
                    "numinlets": 1,
                    "numoutlets": 1,
                    "outlettype": [ "" ],
                    "patching_rect": [ 501.0, 927.0, 54.0, 22.0 ],
                    "text": "deferlow"
                }
            },
            {
                "box": {
                    "id": "obj-146",
                    "maxclass": "newobj",
                    "numinlets": 3,
                    "numoutlets": 1,
                    "outlettype": [ "" ],
                    "patching_rect": [ 632.0, 1000.0, 79.0, 22.0 ],
                    "text": "drunk 100 35"
                }
            },
            {
                "box": {
                    "id": "obj-58",
                    "maxclass": "newobj",
                    "numinlets": 3,
                    "numoutlets": 1,
                    "outlettype": [ "" ],
                    "patching_rect": [ 393.0, 1000.0, 79.0, 22.0 ],
                    "text": "drunk 100 35"
                }
            },
            {
                "box": {
                    "id": "obj-59",
                    "maxclass": "newobj",
                    "numinlets": 3,
                    "numoutlets": 1,
                    "outlettype": [ "" ],
                    "patching_rect": [ 537.0, 1000.0, 79.0, 22.0 ],
                    "text": "drunk 100 35"
                }
            },
            {
                "box": {
                    "id": "obj-55",
                    "maxclass": "newobj",
                    "numinlets": 2,
                    "numoutlets": 1,
                    "outlettype": [ "bang" ],
                    "patching_rect": [ 393.0, 928.0, 76.0, 22.0 ],
                    "text": "metro 20000"
                }
            },
            {
                "box": {
                    "bgcolor": [ 0.383860975503922, 0.257905185222626, 0.254302173852921, 1.0 ],
                    "drawoffcolor": 1,
                    "elementcolor": [ 0.383860975503922, 0.257905185222626, 0.254302173852921, 1.0 ],
                    "id": "obj-144",
                    "knobcolor": [ 0.986251831054688, 0.007236152887344, 0.027423052117229, 1.0 ],
                    "maxclass": "slider",
                    "numinlets": 1,
                    "numoutlets": 1,
                    "outlettype": [ "" ],
                    "parameter_enable": 0,
                    "patching_rect": [ 632.0, 1032.0, 20.000000596046448, 228.0000067949295 ],
                    "presentation": 1,
                    "presentation_rect": [ 1472.0, 365.3333322405815, 20.0, 145.0 ],
                    "size": 100.0
                }
            },
            {
                "box": {
                    "id": "obj-102",
                    "maxclass": "newobj",
                    "numinlets": 1,
                    "numoutlets": 0,
                    "patching_rect": [ 573.0, 1339.0, 41.0, 22.0 ],
                    "text": "s goal"
                }
            },
            {
                "box": {
                    "id": "obj-84",
                    "maxclass": "newobj",
                    "numinlets": 2,
                    "numoutlets": 1,
                    "outlettype": [ "" ],
                    "patching_rect": [ 393.0, 1307.0, 83.0, 22.0 ],
                    "text": "pack f f"
                }
            },
            {
                "box": {
                    "id": "obj-81",
                    "maxclass": "newobj",
                    "numinlets": 2,
                    "numoutlets": 1,
                    "outlettype": [ "float" ],
                    "patching_rect": [ 457.0, 1275.0, 39.0, 22.0 ],
                    "text": "/ 100."
                }
            },
            {
                "box": {
                    "id": "obj-78",
                    "maxclass": "newobj",
                    "numinlets": 2,
                    "numoutlets": 1,
                    "outlettype": [ "float" ],
                    "patching_rect": [ 393.0, 1275.0, 39.0, 22.0 ],
                    "text": "/ 100."
                }
            },
            {
                "box": {
                    "id": "obj-63",
                    "maxclass": "message",
                    "numinlets": 2,
                    "numoutlets": 1,
                    "outlettype": [ "" ],
                    "patching_rect": [ 512.0, 1307.0, 50.0, 22.0 ],
                    "text": "0. 0. 0."
                }
            },
            {
                "box": {
                    "id": "obj-44",
                    "maxclass": "newobj",
                    "numinlets": 3,
                    "numoutlets": 1,
                    "outlettype": [ "" ],
                    "patching_rect": [ 573.0, 1279.0, 76.99998927116394, 22.0 ],
                    "text": "pack f f f"
                }
            },
            {
                "box": {
                    "id": "obj-33",
                    "maxclass": "message",
                    "numinlets": 2,
                    "numoutlets": 1,
                    "outlettype": [ "" ],
                    "patching_rect": [ 573.0, 1307.0, 81.0, 22.0 ],
                    "text": "goal $1 $2 $3"
                }
            },
            {
                "box": {
                    "bgcolor": [ 0.443137254901961, 0.333333333333333, 0.325490196078431, 1.0 ],
                    "color": [ 0.847058823529412, 0.011764705882353, 0.011764705882353, 1.0 ],
                    "id": "obj-101",
                    "maxclass": "pictslider",
                    "numinlets": 2,
                    "numoutlets": 2,
                    "outlettype": [ "int", "int" ],
                    "parameter_enable": 1,
                    "patching_rect": [ 393.0, 1032.0, 228.0, 228.0 ],
                    "presentation": 1,
                    "presentation_rect": [ 1316.0, 365.3333322405815, 146.0, 145.0 ],
                    "rightvalue": 100,
                    "saved_attribute_attributes": {
                        "valueof": {
                            "parameter_initial": [ 0, 0 ],
                            "parameter_initial_enable": 1,
                            "parameter_invisible": 1,
                            "parameter_longname": "pictslider[2]",
                            "parameter_modmode": 0,
                            "parameter_shortname": "pictslider",
                            "parameter_type": 3
                        }
                    },
                    "topvalue": 100,
                    "varname": "pictslider[2]"
                }
            },
            {
                "box": {
                    "id": "obj-32",
                    "maxclass": "newobj",
                    "numinlets": 1,
                    "numoutlets": 1,
                    "outlettype": [ "" ],
                    "patching_rect": [ 544.0, 476.0, 95.0, 22.0 ],
                    "text": "prepend penalty"
                }
            },
            {
                "box": {
                    "id": "obj-31",
                    "maxclass": "newobj",
                    "numinlets": 1,
                    "numoutlets": 1,
                    "outlettype": [ "" ],
                    "patching_rect": [ 645.0, 476.0, 81.0, 22.0 ],
                    "text": "prepend style"
                }
            },
            {
                "box": {
                    "id": "obj-29",
                    "maxclass": "newobj",
                    "numinlets": 1,
                    "numoutlets": 1,
                    "outlettype": [ "" ],
                    "patching_rect": [ 544.0, 551.0, 87.0, 22.0 ],
                    "text": "prepend target"
                }
            },
            {
                "box": {
                    "id": "obj-30",
                    "maxclass": "newobj",
                    "numinlets": 2,
                    "numoutlets": 1,
                    "outlettype": [ "int" ],
                    "patching_rect": [ 544.0, 515.0, 29.5, 22.0 ],
                    "text": "+ 1"
                }
            },
            {
                "box": {
                    "id": "obj-22",
                    "maxclass": "newobj",
                    "numinlets": 2,
                    "numoutlets": 3,
                    "outlettype": [ "", "", "" ],
                    "patching_rect": [ 544.0, 378.0, 133.0, 22.0 ],
                    "saved_object_attributes": {
                        "versionnumber": 80300
                    },
                    "text": "bach.iter @maxdepth 1"
                }
            },
            {
                "box": {
                    "id": "obj-23",
                    "maxclass": "newobj",
                    "numinlets": 1,
                    "numoutlets": 4,
                    "outlettype": [ "", "", "", "bang" ],
                    "patching_rect": [ 544.0, 407.0, 207.0, 22.0 ],
                    "saved_object_attributes": {
                        "versionnumber": 80300
                    },
                    "text": "bach.keys penalty style id @out mnm"
                }
            },
            {
                "box": {
                    "id": "obj-24",
                    "maxclass": "newobj",
                    "numinlets": 2,
                    "numoutlets": 1,
                    "outlettype": [ "" ],
                    "patching_rect": [ 544.0, 348.0, 55.0, 22.0 ],
                    "saved_object_attributes": {
                        "embed": 0,
                        "versionnumber": 80300
                    },
                    "text": "bach.reg"
                }
            },
            {
                "box": {
                    "id": "obj-25",
                    "maxclass": "newobj",
                    "numinlets": 1,
                    "numoutlets": 2,
                    "outlettype": [ "", "" ],
                    "patching_rect": [ 491.0, 314.0, 72.0, 22.0 ],
                    "saved_object_attributes": {
                        "versionnumber": 80300
                    },
                    "text": "bach.slice 1"
                }
            },
            {
                "box": {
                    "id": "obj-26",
                    "maxclass": "newobj",
                    "numinlets": 1,
                    "numoutlets": 1,
                    "outlettype": [ "" ],
                    "patching_rect": [ 491.0, 282.0, 64.0, 22.0 ],
                    "saved_object_attributes": {
                        "versionnumber": 80300
                    },
                    "text": "bach.flat 1"
                }
            },
            {
                "box": {
                    "id": "obj-27",
                    "maxclass": "newobj",
                    "numinlets": 1,
                    "numoutlets": 1,
                    "outlettype": [ "" ],
                    "patching_rect": [ 491.0, 252.0, 74.0, 22.0 ],
                    "saved_object_attributes": {
                        "versionnumber": 80300
                    },
                    "text": "bach.dict2llll"
                }
            },
            {
                "box": {
                    "id": "obj-21",
                    "maxclass": "newobj",
                    "numinlets": 4,
                    "numoutlets": 0,
                    "patcher": {
                        "fileversion": 1,
                        "appversion": {
                            "major": 9,
                            "minor": 1,
                            "revision": 2,
                            "architecture": "x64",
                            "modernui": 1
                        },
                        "classnamespace": "box",
                        "rect": [ 59.0, 119.0, 1000.0, 755.0 ],
                        "boxes": [
                            {
                                "box": {
                                    "id": "obj-4",
                                    "maxclass": "newobj",
                                    "numinlets": 2,
                                    "numoutlets": 1,
                                    "outlettype": [ "float" ],
                                    "patching_rect": [ 120.0, 125.0, 29.5, 22.0 ],
                                    "text": "- 1."
                                }
                            },
                            {
                                "box": {
                                    "id": "obj-5",
                                    "maxclass": "newobj",
                                    "numinlets": 2,
                                    "numoutlets": 1,
                                    "outlettype": [ "float" ],
                                    "patching_rect": [ 120.0, 91.0, 32.0, 22.0 ],
                                    "text": "/ 50."
                                }
                            },
                            {
                                "box": {
                                    "id": "obj-1",
                                    "maxclass": "newobj",
                                    "numinlets": 2,
                                    "numoutlets": 1,
                                    "outlettype": [ "float" ],
                                    "patching_rect": [ 85.0, 125.0, 29.5, 22.0 ],
                                    "text": "- 1."
                                }
                            },
                            {
                                "box": {
                                    "id": "obj-3",
                                    "maxclass": "newobj",
                                    "numinlets": 2,
                                    "numoutlets": 1,
                                    "outlettype": [ "float" ],
                                    "patching_rect": [ 85.0, 91.0, 32.0, 22.0 ],
                                    "text": "/ 50."
                                }
                            },
                            {
                                "box": {
                                    "id": "obj-46",
                                    "maxclass": "newobj",
                                    "numinlets": 2,
                                    "numoutlets": 1,
                                    "outlettype": [ "float" ],
                                    "patching_rect": [ 49.0, 125.0, 29.5, 22.0 ],
                                    "text": "- 1."
                                }
                            },
                            {
                                "box": {
                                    "id": "obj-45",
                                    "maxclass": "newobj",
                                    "numinlets": 2,
                                    "numoutlets": 1,
                                    "outlettype": [ "float" ],
                                    "patching_rect": [ 49.0, 91.0, 32.0, 22.0 ],
                                    "text": "/ 50."
                                }
                            },
                            {
                                "box": {
                                    "id": "obj-7",
                                    "maxclass": "newobj",
                                    "numinlets": 1,
                                    "numoutlets": 0,
                                    "patching_rect": [ 50.0, 218.0, 113.0, 22.0 ],
                                    "text": "send player_coords"
                                }
                            },
                            {
                                "box": {
                                    "id": "obj-2",
                                    "maxclass": "newobj",
                                    "numinlets": 4,
                                    "numoutlets": 1,
                                    "outlettype": [ "" ],
                                    "patching_rect": [ 50.0, 186.0, 124.0, 22.0 ],
                                    "text": "pack f f f i"
                                }
                            },
                            {
                                "box": {
                                    "comment": "",
                                    "id": "obj-9",
                                    "index": 1,
                                    "maxclass": "inlet",
                                    "numinlets": 0,
                                    "numoutlets": 1,
                                    "outlettype": [ "" ],
                                    "patching_rect": [ 50.0, 40.0, 30.0, 30.0 ]
                                }
                            },
                            {
                                "box": {
                                    "comment": "",
                                    "id": "obj-13",
                                    "index": 2,
                                    "maxclass": "inlet",
                                    "numinlets": 0,
                                    "numoutlets": 1,
                                    "outlettype": [ "" ],
                                    "patching_rect": [ 85.0, 40.0, 30.0, 30.0 ]
                                }
                            },
                            {
                                "box": {
                                    "comment": "",
                                    "id": "obj-17",
                                    "index": 3,
                                    "maxclass": "inlet",
                                    "numinlets": 0,
                                    "numoutlets": 1,
                                    "outlettype": [ "" ],
                                    "patching_rect": [ 120.0, 40.0, 30.0, 30.0 ]
                                }
                            },
                            {
                                "box": {
                                    "comment": "",
                                    "id": "obj-20",
                                    "index": 4,
                                    "maxclass": "inlet",
                                    "numinlets": 0,
                                    "numoutlets": 1,
                                    "outlettype": [ "" ],
                                    "patching_rect": [ 155.0, 40.0, 30.0, 30.0 ]
                                }
                            }
                        ],
                        "lines": [
                            {
                                "patchline": {
                                    "destination": [ "obj-2", 2 ],
                                    "source": [ "obj-1", 0 ]
                                }
                            },
                            {
                                "patchline": {
                                    "destination": [ "obj-3", 0 ],
                                    "source": [ "obj-13", 0 ]
                                }
                            },
                            {
                                "patchline": {
                                    "destination": [ "obj-5", 0 ],
                                    "source": [ "obj-17", 0 ]
                                }
                            },
                            {
                                "patchline": {
                                    "destination": [ "obj-7", 0 ],
                                    "source": [ "obj-2", 0 ]
                                }
                            },
                            {
                                "patchline": {
                                    "destination": [ "obj-2", 3 ],
                                    "source": [ "obj-20", 0 ]
                                }
                            },
                            {
                                "patchline": {
                                    "destination": [ "obj-1", 0 ],
                                    "source": [ "obj-3", 0 ]
                                }
                            },
                            {
                                "patchline": {
                                    "destination": [ "obj-2", 1 ],
                                    "source": [ "obj-4", 0 ]
                                }
                            },
                            {
                                "patchline": {
                                    "destination": [ "obj-46", 0 ],
                                    "source": [ "obj-45", 0 ]
                                }
                            },
                            {
                                "patchline": {
                                    "destination": [ "obj-2", 0 ],
                                    "source": [ "obj-46", 0 ]
                                }
                            },
                            {
                                "patchline": {
                                    "destination": [ "obj-4", 0 ],
                                    "source": [ "obj-5", 0 ]
                                }
                            },
                            {
                                "patchline": {
                                    "destination": [ "obj-45", 0 ],
                                    "source": [ "obj-9", 0 ]
                                }
                            }
                        ]
                    },
                    "patching_rect": [ 1124.0, 483.0, 80.0, 22.0 ],
                    "text": "p send2video"
                }
            },
            {
                "box": {
                    "id": "obj-19",
                    "maxclass": "newobj",
                    "numinlets": 2,
                    "numoutlets": 3,
                    "outlettype": [ "", "", "" ],
                    "patching_rect": [ 853.0, 388.0, 133.0, 22.0 ],
                    "saved_object_attributes": {
                        "versionnumber": 80300
                    },
                    "text": "bach.iter @maxdepth 1"
                }
            },
            {
                "box": {
                    "id": "obj-18",
                    "maxclass": "newobj",
                    "numinlets": 1,
                    "numoutlets": 6,
                    "outlettype": [ "", "", "", "", "", "bang" ],
                    "patching_rect": [ 853.0, 435.0, 228.0, 22.0 ],
                    "saved_object_attributes": {
                        "versionnumber": 80300
                    },
                    "text": "bach.keys active X Y Z id @out mmmmm"
                }
            },
            {
                "box": {
                    "id": "obj-195",
                    "maxclass": "newobj",
                    "numinlets": 2,
                    "numoutlets": 1,
                    "outlettype": [ "" ],
                    "patching_rect": [ 853.0, 348.0, 55.0, 22.0 ],
                    "saved_object_attributes": {
                        "embed": 0,
                        "versionnumber": 80300
                    },
                    "text": "bach.reg"
                }
            },
            {
                "box": {
                    "id": "obj-196",
                    "maxclass": "newobj",
                    "numinlets": 1,
                    "numoutlets": 2,
                    "outlettype": [ "", "" ],
                    "patching_rect": [ 800.0, 314.0, 72.0, 22.0 ],
                    "saved_object_attributes": {
                        "versionnumber": 80300
                    },
                    "text": "bach.slice 1"
                }
            },
            {
                "box": {
                    "id": "obj-197",
                    "maxclass": "newobj",
                    "numinlets": 1,
                    "numoutlets": 1,
                    "outlettype": [ "" ],
                    "patching_rect": [ 800.0, 282.0, 64.0, 22.0 ],
                    "saved_object_attributes": {
                        "versionnumber": 80300
                    },
                    "text": "bach.flat 1"
                }
            },
            {
                "box": {
                    "id": "obj-198",
                    "maxclass": "newobj",
                    "numinlets": 1,
                    "numoutlets": 1,
                    "outlettype": [ "" ],
                    "patching_rect": [ 800.0, 252.0, 74.0, 22.0 ],
                    "saved_object_attributes": {
                        "versionnumber": 80300
                    },
                    "text": "bach.dict2llll"
                }
            },
            {
                "box": {
                    "id": "obj-62",
                    "maxclass": "message",
                    "numinlets": 2,
                    "numoutlets": 1,
                    "outlettype": [ "" ],
                    "patching_rect": [ 1128.0, 661.0, 104.0, 22.0 ],
                    "text": "touch 27. 32. 31."
                }
            },
            {
                "box": {
                    "id": "obj-61",
                    "linecount": 3,
                    "maxclass": "message",
                    "numinlets": 2,
                    "numoutlets": 1,
                    "outlettype": [ "" ],
                    "patching_rect": [ 1257.0, 661.0, 104.0, 49.0 ],
                    "text": "style 171.111331 211.26688 218.982053"
                }
            },
            {
                "box": {
                    "id": "obj-48",
                    "maxclass": "newobj",
                    "numinlets": 0,
                    "numoutlets": 1,
                    "outlettype": [ "" ],
                    "patching_rect": [ 800.0, 600.0, 39.0, 22.0 ],
                    "text": "r goal"
                }
            },
            {
                "box": {
                    "id": "obj-189",
                    "maxclass": "toggle",
                    "numinlets": 1,
                    "numoutlets": 1,
                    "outlettype": [ "int" ],
                    "parameter_enable": 0,
                    "patching_rect": [ 1012.0, 563.0, 24.0, 24.0 ]
                }
            },
            {
                "box": {
                    "id": "obj-187",
                    "maxclass": "message",
                    "numinlets": 2,
                    "numoutlets": 1,
                    "outlettype": [ "" ],
                    "patching_rect": [ 1215.0, 600.0, 83.0, 22.0 ],
                    "text": "style $1 $2 $3"
                }
            },
            {
                "box": {
                    "id": "obj-186",
                    "maxclass": "message",
                    "numinlets": 2,
                    "numoutlets": 1,
                    "outlettype": [ "" ],
                    "patching_rect": [ 856.0, 693.0, 49.0, 22.0 ],
                    "text": "target 0"
                }
            },
            {
                "box": {
                    "id": "obj-184",
                    "maxclass": "newobj",
                    "numinlets": 1,
                    "numoutlets": 2,
                    "outlettype": [ "", "bang" ],
                    "patching_rect": [ 800.0, 656.0, 42.0, 22.0 ],
                    "text": "t l b"
                }
            },
            {
                "box": {
                    "channels": 4,
                    "id": "obj-183",
                    "lastchannelcount": 0,
                    "maxclass": "live.gain~",
                    "numinlets": 4,
                    "numoutlets": 7,
                    "outlettype": [ "signal", "signal", "signal", "signal", "", "float", "list" ],
                    "parameter_enable": 1,
                    "patching_rect": [ 876.0, 804.0, 250.0, 155.0 ],
                    "saved_attribute_attributes": {
                        "valueof": {
                            "parameter_longname": "live.gain~",
                            "parameter_mmax": 6.0,
                            "parameter_mmin": -70.0,
                            "parameter_modmode": 3,
                            "parameter_shortname": "live.gain~",
                            "parameter_type": 0,
                            "parameter_unitstyle": 4
                        }
                    },
                    "varname": "live.gain~"
                }
            },
            {
                "box": {
                    "id": "obj-179",
                    "maxclass": "newobj",
                    "numinlets": 1,
                    "numoutlets": 1,
                    "outlettype": [ "" ],
                    "patching_rect": [ 876.0, 600.0, 87.0, 22.0 ],
                    "text": "prepend target"
                }
            },
            {
                "box": {
                    "id": "obj-178",
                    "maxclass": "newobj",
                    "numinlets": 1,
                    "numoutlets": 4,
                    "outlettype": [ "signal", "signal", "signal", "signal" ],
                    "patching_rect": [ 876.0, 744.0, 250.0, 22.0 ],
                    "text": "poly~ rnbo-polyphonic @parallel 1 @voices 8"
                }
            },
            {
                "box": {
                    "id": "obj-177",
                    "maxclass": "newobj",
                    "numinlets": 2,
                    "numoutlets": 0,
                    "patching_rect": [ 876.0, 1004.0, 58.0, 22.0 ],
                    "text": "dac~"
                }
            },
            {
                "box": {
                    "id": "obj-176",
                    "maxclass": "message",
                    "numinlets": 2,
                    "numoutlets": 1,
                    "outlettype": [ "" ],
                    "patching_rect": [ 1096.0, 600.0, 88.0, 22.0 ],
                    "text": "touch $1 $2 $3"
                }
            },
            {
                "box": {
                    "id": "obj-173",
                    "maxclass": "message",
                    "numinlets": 2,
                    "numoutlets": 1,
                    "outlettype": [ "" ],
                    "patching_rect": [ 1012.0, 600.0, 49.0, 22.0 ],
                    "text": "start $1"
                }
            },
            {
                "box": {
                    "id": "obj-171",
                    "maxclass": "newobj",
                    "numinlets": 3,
                    "numoutlets": 1,
                    "outlettype": [ "" ],
                    "patching_rect": [ 1215.0, 564.0, 54.0, 22.0 ],
                    "text": "pack f f f"
                }
            },
            {
                "box": {
                    "id": "obj-170",
                    "maxclass": "newobj",
                    "numinlets": 3,
                    "numoutlets": 1,
                    "outlettype": [ "" ],
                    "patching_rect": [ 1096.0, 564.0, 54.0, 22.0 ],
                    "text": "pack f f f"
                }
            },
            {
                "box": {
                    "id": "obj-169",
                    "maxclass": "newobj",
                    "numinlets": 2,
                    "numoutlets": 1,
                    "outlettype": [ "int" ],
                    "patching_rect": [ 876.0, 564.0, 29.5, 22.0 ],
                    "text": "+ 1"
                }
            },
            {
                "box": {
                    "id": "obj-16",
                    "maxclass": "dict.view",
                    "numinlets": 1,
                    "numoutlets": 0,
                    "patching_rect": [ 198.0, 271.0, 124.0, 450.0 ]
                }
            },
            {
                "box": {
                    "id": "obj-15",
                    "maxclass": "dict.view",
                    "numinlets": 1,
                    "numoutlets": 0,
                    "patching_rect": [ 12.0, 279.0, 181.0, 547.0 ]
                }
            },
            {
                "box": {
                    "id": "obj-14",
                    "maxclass": "newobj",
                    "numinlets": 4,
                    "numoutlets": 4,
                    "outlettype": [ "", "", "", "" ],
                    "patching_rect": [ 51.0, 195.0, 137.0, 22.0 ],
                    "text": "route user control global"
                }
            },
            {
                "box": {
                    "id": "obj-10",
                    "maxclass": "newobj",
                    "numinlets": 1,
                    "numoutlets": 5,
                    "outlettype": [ "", "", "", "", "" ],
                    "patching_rect": [ 445.0, 92.0, 143.0, 22.0 ],
                    "text": "soundworks.shared-state"
                }
            },
            {
                "box": {
                    "id": "obj-5",
                    "maxclass": "newobj",
                    "numinlets": 1,
                    "numoutlets": 0,
                    "patching_rect": [ 1202.0, 242.0, 32.0, 22.0 ],
                    "text": "print"
                }
            },
            {
                "box": {
                    "id": "obj-4",
                    "maxclass": "newobj",
                    "numinlets": 2,
                    "numoutlets": 2,
                    "outlettype": [ "", "" ],
                    "patching_rect": [ 1202.0, 221.0, 79.0, 22.0 ],
                    "text": "route running"
                }
            },
            {
                "box": {
                    "bgmode": 0,
                    "border": 0,
                    "clickthrough": 0,
                    "enablehscroll": 0,
                    "enablevscroll": 0,
                    "id": "obj-6",
                    "lockeddragscroll": 0,
                    "lockedsize": 0,
                    "maxclass": "bpatcher",
                    "name": "n4m.monitor.maxpat",
                    "numinlets": 1,
                    "numoutlets": 1,
                    "offset": [ 0.0, 0.0 ],
                    "outlettype": [ "bang" ],
                    "patching_rect": [ 1262.0, 253.0, 400.0, 220.0 ],
                    "viewvisibility": 1
                }
            },
            {
                "box": {
                    "id": "obj-28",
                    "maxclass": "message",
                    "numinlets": 2,
                    "numoutlets": 1,
                    "outlettype": [ "" ],
                    "patching_rect": [ 93.0, 21.0, 65.0, 22.0 ],
                    "text": "script stop"
                }
            },
            {
                "box": {
                    "id": "obj-12",
                    "maxclass": "message",
                    "numinlets": 2,
                    "numoutlets": 1,
                    "outlettype": [ "" ],
                    "patching_rect": [ 20.0, 21.0, 66.0, 22.0 ],
                    "text": "script start"
                }
            },
            {
                "box": {
                    "id": "obj-1",
                    "maxclass": "newobj",
                    "numinlets": 1,
                    "numoutlets": 2,
                    "outlettype": [ "", "" ],
                    "patching_rect": [ 51.0, 171.0, 231.0, 22.0 ],
                    "saved_object_attributes": {
                        "autostart": 0,
                        "defer": 0,
                        "node_bin_path": "",
                        "npm_bin_path": "",
                        "watch": 1
                    },
                    "text": "node.script node-max_player.js @watch 1",
                    "textfile": {
                        "filename": "node-max_player.js",
                        "flags": 0,
                        "embed": 0,
                        "autowatch": 1
                    }
                }
            }
        ],
        "lines": [
            {
                "patchline": {
                    "destination": [ "obj-14", 0 ],
                    "source": [ "obj-1", 0 ]
                }
            },
            {
                "patchline": {
                    "destination": [ "obj-4", 0 ],
                    "source": [ "obj-1", 1 ]
                }
            },
            {
                "patchline": {
                    "destination": [ "obj-44", 1 ],
                    "order": 0,
                    "source": [ "obj-101", 1 ]
                }
            },
            {
                "patchline": {
                    "destination": [ "obj-44", 0 ],
                    "order": 0,
                    "source": [ "obj-101", 0 ]
                }
            },
            {
                "patchline": {
                    "destination": [ "obj-78", 0 ],
                    "order": 1,
                    "source": [ "obj-101", 0 ]
                }
            },
            {
                "patchline": {
                    "destination": [ "obj-81", 0 ],
                    "order": 1,
                    "source": [ "obj-101", 1 ]
                }
            },
            {
                "patchline": {
                    "destination": [ "obj-20", 0 ],
                    "source": [ "obj-11", 0 ]
                }
            },
            {
                "patchline": {
                    "destination": [ "obj-1", 0 ],
                    "source": [ "obj-12", 0 ]
                }
            },
            {
                "patchline": {
                    "destination": [ "obj-20", 1 ],
                    "source": [ "obj-13", 0 ]
                }
            },
            {
                "patchline": {
                    "destination": [ "obj-15", 0 ],
                    "order": 1,
                    "source": [ "obj-14", 0 ]
                }
            },
            {
                "patchline": {
                    "destination": [ "obj-16", 0 ],
                    "order": 1,
                    "source": [ "obj-14", 1 ]
                }
            },
            {
                "patchline": {
                    "destination": [ "obj-198", 0 ],
                    "order": 0,
                    "source": [ "obj-14", 1 ]
                }
            },
            {
                "patchline": {
                    "destination": [ "obj-27", 0 ],
                    "order": 0,
                    "source": [ "obj-14", 0 ]
                }
            },
            {
                "patchline": {
                    "destination": [ "obj-41", 0 ],
                    "source": [ "obj-14", 2 ]
                }
            },
            {
                "patchline": {
                    "destination": [ "obj-42", 0 ],
                    "source": [ "obj-14", 3 ]
                }
            },
            {
                "patchline": {
                    "destination": [ "obj-44", 2 ],
                    "source": [ "obj-144", 0 ]
                }
            },
            {
                "patchline": {
                    "destination": [ "obj-144", 0 ],
                    "source": [ "obj-146", 0 ]
                }
            },
            {
                "patchline": {
                    "destination": [ "obj-179", 0 ],
                    "source": [ "obj-169", 0 ]
                }
            },
            {
                "patchline": {
                    "destination": [ "obj-20", 2 ],
                    "source": [ "obj-17", 0 ]
                }
            },
            {
                "patchline": {
                    "destination": [ "obj-176", 0 ],
                    "source": [ "obj-170", 0 ]
                }
            },
            {
                "patchline": {
                    "destination": [ "obj-187", 0 ],
                    "source": [ "obj-171", 0 ]
                }
            },
            {
                "patchline": {
                    "destination": [ "obj-178", 0 ],
                    "source": [ "obj-173", 0 ]
                }
            },
            {
                "patchline": {
                    "destination": [ "obj-178", 0 ],
                    "order": 1,
                    "source": [ "obj-176", 0 ]
                }
            },
            {
                "patchline": {
                    "destination": [ "obj-62", 1 ],
                    "order": 0,
                    "source": [ "obj-176", 0 ]
                }
            },
            {
                "patchline": {
                    "destination": [ "obj-183", 3 ],
                    "source": [ "obj-178", 3 ]
                }
            },
            {
                "patchline": {
                    "destination": [ "obj-183", 2 ],
                    "source": [ "obj-178", 2 ]
                }
            },
            {
                "patchline": {
                    "destination": [ "obj-183", 1 ],
                    "source": [ "obj-178", 1 ]
                }
            },
            {
                "patchline": {
                    "destination": [ "obj-183", 0 ],
                    "source": [ "obj-178", 0 ]
                }
            },
            {
                "patchline": {
                    "destination": [ "obj-178", 0 ],
                    "source": [ "obj-179", 0 ]
                }
            },
            {
                "patchline": {
                    "destination": [ "obj-169", 0 ],
                    "order": 1,
                    "source": [ "obj-18", 4 ]
                }
            },
            {
                "patchline": {
                    "destination": [ "obj-170", 2 ],
                    "order": 1,
                    "source": [ "obj-18", 3 ]
                }
            },
            {
                "patchline": {
                    "destination": [ "obj-170", 1 ],
                    "order": 1,
                    "source": [ "obj-18", 2 ]
                }
            },
            {
                "patchline": {
                    "destination": [ "obj-170", 0 ],
                    "order": 1,
                    "source": [ "obj-18", 1 ]
                }
            },
            {
                "patchline": {
                    "destination": [ "obj-189", 0 ],
                    "source": [ "obj-18", 0 ]
                }
            },
            {
                "patchline": {
                    "destination": [ "obj-21", 3 ],
                    "order": 0,
                    "source": [ "obj-18", 4 ]
                }
            },
            {
                "patchline": {
                    "destination": [ "obj-21", 2 ],
                    "order": 0,
                    "source": [ "obj-18", 3 ]
                }
            },
            {
                "patchline": {
                    "destination": [ "obj-21", 1 ],
                    "order": 0,
                    "source": [ "obj-18", 2 ]
                }
            },
            {
                "patchline": {
                    "destination": [ "obj-21", 0 ],
                    "order": 0,
                    "source": [ "obj-18", 1 ]
                }
            },
            {
                "patchline": {
                    "destination": [ "obj-177", 1 ],
                    "source": [ "obj-183", 3 ]
                }
            },
            {
                "patchline": {
                    "destination": [ "obj-177", 0 ],
                    "source": [ "obj-183", 2 ]
                }
            },
            {
                "patchline": {
                    "destination": [ "obj-177", 1 ],
                    "source": [ "obj-183", 1 ]
                }
            },
            {
                "patchline": {
                    "destination": [ "obj-177", 0 ],
                    "source": [ "obj-183", 0 ]
                }
            },
            {
                "patchline": {
                    "destination": [ "obj-178", 0 ],
                    "source": [ "obj-184", 0 ]
                }
            },
            {
                "patchline": {
                    "destination": [ "obj-186", 0 ],
                    "source": [ "obj-184", 1 ]
                }
            },
            {
                "patchline": {
                    "destination": [ "obj-178", 0 ],
                    "source": [ "obj-186", 0 ]
                }
            },
            {
                "patchline": {
                    "destination": [ "obj-178", 0 ],
                    "order": 1,
                    "source": [ "obj-187", 0 ]
                }
            },
            {
                "patchline": {
                    "destination": [ "obj-61", 1 ],
                    "order": 0,
                    "source": [ "obj-187", 0 ]
                }
            },
            {
                "patchline": {
                    "destination": [ "obj-173", 0 ],
                    "source": [ "obj-189", 0 ]
                }
            },
            {
                "patchline": {
                    "destination": [ "obj-18", 0 ],
                    "source": [ "obj-19", 0 ]
                }
            },
            {
                "patchline": {
                    "destination": [ "obj-19", 0 ],
                    "source": [ "obj-195", 0 ]
                }
            },
            {
                "patchline": {
                    "destination": [ "obj-195", 0 ],
                    "source": [ "obj-196", 1 ]
                }
            },
            {
                "patchline": {
                    "destination": [ "obj-196", 0 ],
                    "source": [ "obj-197", 0 ]
                }
            },
            {
                "patchline": {
                    "destination": [ "obj-197", 0 ],
                    "source": [ "obj-198", 0 ]
                }
            },
            {
                "patchline": {
                    "destination": [ "obj-9", 0 ],
                    "source": [ "obj-20", 0 ]
                }
            },
            {
                "patchline": {
                    "destination": [ "obj-23", 0 ],
                    "source": [ "obj-22", 0 ]
                }
            },
            {
                "patchline": {
                    "destination": [ "obj-30", 0 ],
                    "source": [ "obj-23", 2 ]
                }
            },
            {
                "patchline": {
                    "destination": [ "obj-37", 0 ],
                    "source": [ "obj-23", 0 ]
                }
            },
            {
                "patchline": {
                    "destination": [ "obj-7", 0 ],
                    "source": [ "obj-23", 1 ]
                }
            },
            {
                "patchline": {
                    "destination": [ "obj-22", 0 ],
                    "source": [ "obj-24", 0 ]
                }
            },
            {
                "patchline": {
                    "destination": [ "obj-146", 0 ],
                    "order": 0,
                    "source": [ "obj-248", 0 ]
                }
            },
            {
                "patchline": {
                    "destination": [ "obj-58", 0 ],
                    "order": 2,
                    "source": [ "obj-248", 0 ]
                }
            },
            {
                "patchline": {
                    "destination": [ "obj-59", 0 ],
                    "order": 1,
                    "source": [ "obj-248", 0 ]
                }
            },
            {
                "patchline": {
                    "destination": [ "obj-24", 0 ],
                    "source": [ "obj-25", 1 ]
                }
            },
            {
                "patchline": {
                    "destination": [ "obj-25", 0 ],
                    "source": [ "obj-26", 0 ]
                }
            },
            {
                "patchline": {
                    "destination": [ "obj-26", 0 ],
                    "source": [ "obj-27", 0 ]
                }
            },
            {
                "patchline": {
                    "destination": [ "obj-1", 0 ],
                    "source": [ "obj-28", 0 ]
                }
            },
            {
                "patchline": {
                    "destination": [ "obj-178", 0 ],
                    "source": [ "obj-29", 0 ]
                }
            },
            {
                "patchline": {
                    "destination": [ "obj-29", 0 ],
                    "source": [ "obj-30", 0 ]
                }
            },
            {
                "patchline": {
                    "destination": [ "obj-178", 0 ],
                    "source": [ "obj-31", 0 ]
                }
            },
            {
                "patchline": {
                    "destination": [ "obj-178", 0 ],
                    "source": [ "obj-32", 0 ]
                }
            },
            {
                "patchline": {
                    "destination": [ "obj-102", 0 ],
                    "source": [ "obj-33", 0 ]
                }
            },
            {
                "patchline": {
                    "destination": [ "obj-55", 0 ],
                    "source": [ "obj-35", 0 ]
                }
            },
            {
                "patchline": {
                    "destination": [ "obj-11", 0 ],
                    "order": 2,
                    "source": [ "obj-36", 0 ]
                }
            },
            {
                "patchline": {
                    "destination": [ "obj-13", 0 ],
                    "order": 1,
                    "source": [ "obj-36", 0 ]
                }
            },
            {
                "patchline": {
                    "destination": [ "obj-17", 0 ],
                    "order": 0,
                    "source": [ "obj-36", 0 ]
                }
            },
            {
                "patchline": {
                    "destination": [ "obj-32", 0 ],
                    "source": [ "obj-37", 0 ]
                }
            },
            {
                "patchline": {
                    "destination": [ "obj-5", 0 ],
                    "source": [ "obj-4", 0 ]
                }
            },
            {
                "patchline": {
                    "destination": [ "obj-6", 0 ],
                    "source": [ "obj-4", 1 ]
                }
            },
            {
                "patchline": {
                    "destination": [ "obj-33", 0 ],
                    "order": 0,
                    "source": [ "obj-44", 0 ]
                }
            },
            {
                "patchline": {
                    "destination": [ "obj-63", 1 ],
                    "order": 1,
                    "source": [ "obj-44", 0 ]
                }
            },
            {
                "patchline": {
                    "destination": [ "obj-184", 0 ],
                    "source": [ "obj-48", 0 ]
                }
            },
            {
                "patchline": {
                    "destination": [ "obj-146", 0 ],
                    "order": 0,
                    "source": [ "obj-55", 0 ]
                }
            },
            {
                "patchline": {
                    "destination": [ "obj-58", 0 ],
                    "order": 2,
                    "source": [ "obj-55", 0 ]
                }
            },
            {
                "patchline": {
                    "destination": [ "obj-59", 0 ],
                    "order": 1,
                    "source": [ "obj-55", 0 ]
                }
            },
            {
                "patchline": {
                    "destination": [ "obj-101", 0 ],
                    "source": [ "obj-58", 0 ]
                }
            },
            {
                "patchline": {
                    "destination": [ "obj-101", 1 ],
                    "source": [ "obj-59", 0 ]
                }
            },
            {
                "patchline": {
                    "destination": [ "obj-178", 0 ],
                    "source": [ "obj-61", 0 ]
                }
            },
            {
                "patchline": {
                    "destination": [ "obj-31", 0 ],
                    "source": [ "obj-7", 0 ]
                }
            },
            {
                "patchline": {
                    "destination": [ "obj-84", 0 ],
                    "source": [ "obj-78", 0 ]
                }
            },
            {
                "patchline": {
                    "destination": [ "obj-84", 1 ],
                    "source": [ "obj-81", 0 ]
                }
            },
            {
                "patchline": {
                    "destination": [ "obj-1", 0 ],
                    "order": 1,
                    "source": [ "obj-9", 0 ]
                }
            },
            {
                "patchline": {
                    "destination": [ "obj-39", 1 ],
                    "order": 0,
                    "source": [ "obj-9", 0 ]
                }
            }
        ],
        "parameters": {
            "obj-101": [ "pictslider[2]", "pictslider", 0 ],
            "obj-178.1::obj-14": [ "rnbo~[10]", "rnbo~", 0 ],
            "obj-178.2::obj-14": [ "rnbo~[1]", "rnbo~", 0 ],
            "obj-178.3::obj-14": [ "rnbo~[2]", "rnbo~", 0 ],
            "obj-178.4::obj-14": [ "rnbo~[3]", "rnbo~", 0 ],
            "obj-178.5::obj-14": [ "rnbo~[4]", "rnbo~", 0 ],
            "obj-178.6::obj-14": [ "rnbo~[5]", "rnbo~", 0 ],
            "obj-178.7::obj-14": [ "rnbo~[6]", "rnbo~", 0 ],
            "obj-178.8::obj-14": [ "rnbo~[7]", "rnbo~", 0 ],
            "obj-183": [ "live.gain~", "live.gain~", 0 ],
            "parameterbanks": {
                "0": {
                    "index": 0,
                    "name": "",
                    "parameters": [ "-", "-", "-", "-", "-", "-", "-", "-" ],
                    "buttons": [ "-", "-", "-", "-", "-", "-", "-", "-" ]
                }
            },
            "inherited_shortname": 1
        },
        "autosave": 0,
        "toolbaradditions": [ "packagemanager" ],
        "oscreceiveudpport": 0
    }
}